<svg width="66" height="70" viewBox="0 0 66 70" fill="none" xmlns="http://www.w3.org/2000/svg">
<g filter="url(#filter0_d)">
<path d="M26.5 7.75278C30.5222 5.43055 35.4778 5.43055 39.5 7.75278L53.3468 15.7472C57.369 18.0694 59.8468 22.3611 59.8468 27.0056V42.9944C59.8468 47.6389 57.369 51.9305 53.3468 54.2528L39.5 62.2472C35.4778 64.5695 30.5222 64.5695 26.5 62.2472L12.6532 54.2528C8.631 51.9305 6.15321 47.6389 6.15321 42.9944V27.0056C6.15321 22.3611 8.631 18.0694 12.6532 15.7472L26.5 7.75278Z" fill="#4473F6"/>
</g>
<path opacity="0.2" d="M26.5 14.7528C30.5222 12.4306 35.4778 12.4306 39.5 14.7528L47.2846 19.2472C51.3068 21.5695 53.7846 25.8611 53.7846 30.5056V39.4944C53.7846 44.1389 51.3068 48.4305 47.2846 50.7528L39.5 55.2472C35.4778 57.5695 30.5222 57.5695 26.5 55.2472L18.7154 50.7528C14.6932 48.4305 12.2154 44.1389 12.2154 39.4944V30.5056C12.2154 25.8611 14.6932 21.5694 18.7154 19.2472L26.5 14.7528Z" fill="white"/>
<path opacity="0.2" d="M14.4638 27.2701C15.3448 21.7075 19.7075 17.3448 25.2701 16.4638L34.6236 14.9823C40.1862 14.1013 45.6835 16.9023 48.2403 21.9204L52.5397 30.3583C55.0965 35.3764 54.1314 41.4702 50.149 45.4526L43.4526 52.149C39.4702 56.1313 33.3764 57.0965 28.3583 54.5397L19.9204 50.2403C14.9023 47.6835 12.1013 42.1862 12.9823 36.6236L14.4638 27.2701Z" fill="white"/>
<path d="M19.4581 23.8578C20.1498 22.9565 20.9565 22.1497 21.8578 21.4581L22.8034 20.7325C23.7047 20.0409 24.6928 19.4705 25.7424 19.0357L26.8435 18.5796C27.8931 18.1448 28.9952 17.8495 30.1216 17.7012L31.3032 17.5457C32.4296 17.3974 33.5705 17.3974 34.6969 17.5457L35.8785 17.7012C37.0049 17.8495 38.107 18.1448 39.1566 18.5796L40.2577 19.0357C41.3073 19.4705 42.2954 20.0409 43.1967 20.7325L44.1423 21.4581C45.0436 22.1497 45.8504 22.9565 46.542 23.8578L47.2675 24.8033C47.9591 25.7047 48.5296 26.6927 48.9644 27.7423L49.4205 28.8435C49.8552 29.8931 50.1505 30.9951 50.2988 32.1215L50.4544 33.3032C50.6027 34.4295 50.6027 35.5705 50.4544 36.6968L50.2988 37.8785C50.1505 39.0049 49.8552 40.1069 49.4205 41.1565L48.9644 42.2577C48.5296 43.3073 47.9591 44.2953 47.2675 45.1967L46.542 46.1422C45.8504 47.0435 45.0436 47.8503 44.1423 48.5419L43.1967 49.2675C42.2954 49.9591 41.3073 50.5295 40.2577 50.9643L39.1566 51.4204C38.107 51.8552 37.0049 52.1505 35.8785 52.2988L34.6969 52.4543C33.5705 52.6026 32.4296 52.6026 31.3032 52.4543L30.1216 52.2988C28.9952 52.1505 27.8931 51.8552 26.8435 51.4204L25.7424 50.9643C24.6928 50.5295 23.7047 49.9591 22.8034 49.2675L21.8578 48.5419C20.9565 47.8503 20.1498 47.0435 19.4581 46.1422L18.7326 45.1967C18.041 44.2953 17.4705 43.3073 17.0358 42.2577L16.5797 41.1565C16.1449 40.1069 15.8496 39.0049 15.7013 37.8785L15.5457 36.6968C15.3975 35.5705 15.3975 34.4295 15.5457 33.3032L15.7013 32.1215C15.8496 30.9951 16.1449 29.8931 16.5797 28.8435L17.0358 27.7423C17.4705 26.6927 18.041 25.7047 18.7326 24.8033L19.4581 23.8578Z" fill="white"/>
<path fill-rule="evenodd" clip-rule="evenodd" d="M30.5625 12.881C30.4955 13.0114 30.545 13.0975 30.6871 13.0975C30.8335 13.0975 30.8977 12.9756 30.808 12.8676C30.7239 12.7661 30.6187 12.7718 30.5625 12.881ZM35.1754 12.8236C35.0965 12.9025 35.1413 13.0913 35.2469 13.1247C35.397 13.1724 35.5408 13.0274 35.4644 12.9055C35.4056 12.8117 35.2355 12.7635 35.1754 12.8236ZM28.2311 13.2185C28.17 13.3776 28.2318 13.4796 28.3892 13.4796C28.5243 13.4796 28.5413 13.4625 28.5413 13.3267C28.5413 13.153 28.2898 13.0652 28.2311 13.2185ZM37.4529 13.2185C37.3918 13.3776 37.4536 13.4796 37.6111 13.4796C37.7461 13.4796 37.7632 13.4625 37.7632 13.3267C37.7632 13.153 37.5117 13.0652 37.4529 13.2185ZM26.0271 13.8041C25.9387 13.861 25.9686 14.0131 26.082 14.0846C26.1504 14.1276 26.1904 14.12 26.2595 14.0509C26.4083 13.9021 26.2069 13.6883 26.0271 13.8041ZM39.6947 13.8298C39.6336 13.9889 39.6954 14.0909 39.8529 14.0909C39.9879 14.0909 40.005 14.0738 40.005 13.9381C40.005 13.7644 39.7535 13.6766 39.6947 13.8298ZM20.9281 14.3525C20.7085 14.6317 20.7518 14.7544 21.5654 16.1608C22.3658 17.5444 22.7219 17.881 23.0269 17.5425C23.2637 17.2797 23.1989 17.0724 22.5033 15.8693C21.5327 14.1903 21.2612 13.929 20.9281 14.3525ZM44.417 14.413C44.242 14.599 44.0388 14.9268 43.2637 16.2725C42.7579 17.1509 42.752 17.6316 43.247 17.6316C43.6227 17.6316 45.1764 15.192 45.1764 14.602C45.1764 14.185 44.7348 14.0751 44.417 14.413ZM23.8922 14.6086C23.7994 14.6461 23.8142 14.8783 23.9118 14.9158C24.0917 14.9848 24.2395 14.7893 24.1073 14.6572C24.0215 14.5714 23.9978 14.566 23.8922 14.6086ZM41.8915 14.6572C41.7593 14.7893 41.9072 14.9848 42.087 14.9158C42.1936 14.8748 42.1957 14.6465 42.0897 14.6058C41.9817 14.5644 41.9853 14.5634 41.8915 14.6572ZM19.8709 17.0509C19.8274 17.1641 19.9632 17.239 20.0515 17.1507C20.0899 17.1123 20.1057 17.0559 20.0867 17.0252C20.0355 16.9422 19.9067 16.9576 19.8709 17.0509ZM45.9121 17.0252C45.8931 17.0559 45.909 17.1123 45.9473 17.1507C46.0357 17.239 46.1714 17.1641 46.128 17.0509C46.0921 16.9576 45.9634 16.9422 45.9121 17.0252ZM18.0493 18.4249C17.9132 18.5611 17.9898 18.7199 18.1788 18.6932C18.376 18.6653 18.3625 18.3501 18.164 18.3456C18.145 18.3452 18.0934 18.3809 18.0493 18.4249ZM47.6749 18.4188C47.5396 18.5819 47.7384 18.8324 47.9149 18.7213C48.0913 18.6101 48.0285 18.3449 47.8258 18.3449C47.7766 18.3449 47.7087 18.3781 47.6749 18.4188ZM16.4183 20.0558C16.3714 20.1028 16.3458 20.1744 16.3614 20.2151C16.3771 20.2558 16.3899 20.2987 16.3899 20.3105C16.3899 20.3751 16.6528 20.3189 16.6798 20.2484C16.7498 20.0661 16.553 19.9212 16.4183 20.0558ZM49.3053 20.0491C49.17 20.2122 49.3688 20.4627 49.5453 20.3515C49.7217 20.2404 49.6589 19.9751 49.4561 19.9751C49.407 19.9751 49.3391 20.0084 49.3053 20.0491ZM15.0204 21.9291C14.9585 22.0037 14.9936 22.0639 15.0991 22.0639C15.175 22.0639 15.1921 21.9326 15.1219 21.8892C15.0971 21.8738 15.0514 21.8918 15.0204 21.9291ZM50.8033 21.916C50.7495 22.0031 50.9193 22.1496 50.9911 22.0779C51.023 22.0459 51.0353 21.9839 51.0185 21.94C50.9832 21.8481 50.8541 21.8337 50.8033 21.916ZM12.3521 22.9287C11.9455 23.2495 12.2153 23.5484 13.675 24.3944C15.0551 25.1943 15.2742 25.2682 15.5237 25.0188C15.8587 24.6838 15.5372 24.3555 14.0337 23.4972C12.809 22.7979 12.6052 22.729 12.3521 22.9287ZM53.0858 22.8808C52.8752 22.9654 50.9113 24.1146 50.7156 24.2677C50.2041 24.668 50.2839 25.1576 50.8529 25.1104C51.17 25.0841 53.1897 23.9704 53.567 23.6137C54.0273 23.1786 53.6761 22.6437 53.0858 22.8808ZM12.5913 25.9446C12.5553 26.0581 12.6877 26.2103 12.7922 26.1754C12.8778 26.1469 12.9428 26.0039 12.9095 25.9172C12.8612 25.7913 12.6337 25.811 12.5913 25.9446ZM53.0934 25.9067C53.0426 26.0389 53.1137 26.1482 53.2389 26.1304C53.3231 26.1184 53.3538 26.0801 53.3538 25.9867C53.3538 25.8363 53.145 25.7722 53.0934 25.9067ZM11.7692 28.0569C11.6941 28.2525 11.9648 28.3962 12.0761 28.2199C12.115 28.1583 12.1113 28.1128 12.0627 28.0543C11.9755 27.9493 11.8099 27.9508 11.7692 28.0569ZM53.9096 28.0436C53.8486 28.2028 53.9104 28.3047 54.0678 28.3047C54.2029 28.3047 54.2199 28.2876 54.2199 28.1519C54.2199 27.9782 53.9684 27.8904 53.9096 28.0436ZM11.1629 30.2853C11.1018 30.4444 11.1636 30.5464 11.3211 30.5464C11.4562 30.5464 11.4732 30.5292 11.4732 30.3935C11.4732 30.2198 11.2217 30.132 11.1629 30.2853ZM54.521 30.2853C54.46 30.4444 54.5218 30.5464 54.6792 30.5464C54.8143 30.5464 54.8313 30.5292 54.8313 30.3935C54.8313 30.2198 54.5798 30.132 54.521 30.2853ZM10.8328 32.5885C10.7484 32.6901 10.8295 32.8389 10.9693 32.8389C11.1462 32.8389 11.1091 32.5128 10.9317 32.5085C10.9141 32.5081 10.8696 32.5441 10.8328 32.5885ZM54.9042 32.5885C54.8135 32.6977 54.9048 32.8389 55.0662 32.8389C55.1558 32.8389 55.1925 32.8068 55.2051 32.7173C55.2324 32.5248 55.0292 32.4379 54.9042 32.5885ZM9.39035 34.5459C8.80524 34.7267 8.90062 35.396 9.52465 35.4885C10.0197 35.5618 12.4829 35.4932 12.6506 35.4013C12.9865 35.2174 12.9865 34.7908 12.6506 34.6069C12.4715 34.5088 9.67939 34.4566 9.39035 34.5459ZM53.5292 34.5429C53.0288 34.6947 52.9284 35.1714 53.3482 35.4013C53.516 35.4932 55.9791 35.5618 56.4742 35.4885C57.1137 35.3937 57.1928 34.7187 56.5849 34.5444C56.3817 34.4861 53.7206 34.4849 53.5292 34.5429ZM10.8215 37.1756C10.7426 37.2545 10.7874 37.4433 10.893 37.4767C11.0431 37.5244 11.1869 37.3794 11.1105 37.2575C11.0517 37.1637 10.8816 37.1155 10.8215 37.1756ZM54.9199 37.203C54.7834 37.3395 54.9217 37.5352 55.1121 37.4748C55.1921 37.4494 55.2154 37.4062 55.2037 37.305C55.1862 37.1538 55.0265 37.0964 54.9199 37.203ZM11.1629 39.5064C11.1018 39.6655 11.1636 39.7675 11.3211 39.7675C11.4562 39.7675 11.4732 39.7504 11.4732 39.6147C11.4732 39.4409 11.2217 39.3532 11.1629 39.5064ZM54.521 39.5064C54.46 39.6655 54.5218 39.7675 54.6792 39.7675C54.8143 39.7675 54.8313 39.7504 54.8313 39.6147C54.8313 39.4409 54.5798 39.3532 54.521 39.5064ZM11.7743 41.748C11.7132 41.9071 11.775 42.0091 11.9325 42.0091C12.0675 42.0091 12.0846 41.992 12.0846 41.8563C12.0846 41.6826 11.8331 41.5948 11.7743 41.748ZM53.9688 41.758C53.8949 41.832 53.9333 42.0346 54.0213 42.0346C54.1006 42.0346 54.2454 41.9194 54.2454 41.8563C54.2454 41.7315 54.0609 41.6659 53.9688 41.758ZM12.6495 43.8846C12.5164 43.9819 12.5845 44.1743 12.752 44.1743C12.8942 44.1743 12.9663 44.047 12.8916 43.9284C12.8214 43.8172 12.7575 43.8056 12.6495 43.8846ZM53.1266 43.8917C53.029 44.0091 53.0839 44.147 53.2352 44.1645C53.412 44.1851 53.4927 43.9893 53.3503 43.8852C53.2331 43.7996 53.2022 43.8005 53.1266 43.8917ZM50.6394 44.8727C50.3154 44.9349 50.3026 45.3773 50.6167 45.6607C50.9405 45.9529 53.0494 47.139 53.2935 47.1662C53.8018 47.223 53.9628 46.7684 53.5669 46.3945C53.2039 46.0516 50.9517 44.7977 50.7812 44.8435C50.767 44.8473 50.7032 44.8605 50.6394 44.8727ZM14.9123 44.9225C14.6631 45.0104 12.5669 46.27 12.4059 46.4286C11.9368 46.8909 12.3746 47.3725 13.0017 47.0842C13.5152 46.848 15.2601 45.7846 15.4345 45.6015C15.8435 45.1722 15.4939 44.7175 14.9123 44.9225ZM14.9826 47.9673C14.9471 48.0598 14.9987 48.1481 15.0882 48.1481C15.1812 48.1481 15.2229 48.0205 15.1529 47.9505C15.0753 47.8729 15.0167 47.8787 14.9826 47.9673ZM50.8002 47.9673C50.761 48.0694 50.8191 48.1481 50.9337 48.1481C51.0509 48.1481 51.0972 48.0822 51.0558 47.9743C51.0169 47.873 50.8383 47.8681 50.8002 47.9673ZM16.3919 49.6995C16.2565 49.8625 16.4553 50.113 16.6319 50.0019C16.8083 49.8908 16.7454 49.6255 16.5427 49.6255C16.4935 49.6255 16.4257 49.6588 16.3919 49.6995ZM49.3373 49.7104C49.2797 49.768 49.2996 49.9157 49.3732 49.9768C49.5078 50.0884 49.6934 49.9248 49.6274 49.7528C49.5979 49.676 49.4006 49.6471 49.3373 49.7104ZM18.0223 51.3297C17.8869 51.4928 18.0857 51.7433 18.2623 51.6321C18.4386 51.521 18.3758 51.2557 18.1731 51.2557C18.1239 51.2557 18.0561 51.289 18.0223 51.3297ZM47.7069 51.3407C47.6436 51.4039 47.6725 51.6013 47.7493 51.6308C47.9108 51.6928 48.059 51.5446 47.9971 51.3831C47.9676 51.3062 47.7702 51.2773 47.7069 51.3407ZM22.379 52.5931C22.1837 52.7914 21.0645 54.6471 20.8937 55.0557C20.7333 55.4397 20.8833 55.7899 21.2083 55.7899C21.523 55.7899 21.6519 55.6165 22.7351 53.7357C23.1391 53.0341 23.2186 52.6838 23.0191 52.4842C22.8405 52.3057 22.6262 52.3421 22.379 52.5931ZM42.9797 52.4842C42.7188 52.7452 42.803 52.9584 43.9222 54.8702C44.4428 55.7594 44.798 56.0024 45.0708 55.6557C45.2904 55.3765 45.2471 55.2538 44.4335 53.8474C43.62 52.4412 43.3118 52.1522 42.9797 52.4842ZM19.8835 52.8802C19.8488 52.9363 19.9786 53.0505 20.0247 53.0045C20.0431 52.986 20.0582 52.9404 20.0582 52.903C20.0582 52.8271 19.9269 52.81 19.8835 52.8802ZM45.9406 52.9085C45.9406 52.9489 45.9609 52.9945 45.9858 53.0098C46.0419 53.0445 46.1561 52.9146 46.11 52.8686C46.0494 52.808 45.9406 52.8336 45.9406 52.9085ZM23.8483 55.1495C23.7976 55.2817 23.8686 55.3909 23.9939 55.3732C24.078 55.3612 24.1087 55.3229 24.1087 55.2295C24.1087 55.0791 23.8999 55.015 23.8483 55.1495ZM32.8199 55.1478C32.5362 55.2714 32.5174 55.3732 32.4994 56.8852C32.4903 57.6418 32.4974 58.3581 32.515 58.477C32.6183 59.1743 33.3805 59.1743 33.4839 58.477C33.5577 57.9786 33.4885 55.519 33.3958 55.3496C33.3301 55.2297 33.0535 55.0498 32.9791 55.0787C32.9762 55.0798 32.9046 55.1109 32.8199 55.1478ZM41.872 55.1442C41.7576 55.2821 41.9204 55.4673 42.0967 55.3997C42.2172 55.3535 42.1712 55.1059 42.0385 55.087C41.98 55.0786 41.9051 55.1043 41.872 55.1442ZM25.9893 55.9618C25.9282 56.1209 25.99 56.2229 26.1474 56.2229C26.2825 56.2229 26.2996 56.2058 26.2996 56.0701C26.2996 55.8964 26.0481 55.8086 25.9893 55.9618ZM39.7271 55.9654C39.5895 56.1312 39.8172 56.3306 39.9699 56.178C40.0348 56.1131 40.0414 56.0733 39.9987 56.0055C39.9243 55.8874 39.8063 55.8699 39.7271 55.9654ZM28.2311 56.5732C28.17 56.7323 28.2318 56.8343 28.3892 56.8343C28.5243 56.8343 28.5413 56.8172 28.5413 56.6815C28.5413 56.5077 28.2898 56.4199 28.2311 56.5732ZM37.4529 56.5732C37.3918 56.7323 37.4536 56.8343 37.6111 56.8343C37.7461 56.8343 37.7632 56.8172 37.7632 56.6815C37.7632 56.5077 37.5117 56.4199 37.4529 56.5732ZM30.5503 56.9405C30.4596 57.0497 30.5509 57.1909 30.7122 57.1909C30.8019 57.1909 30.8386 57.1588 30.8512 57.0693C30.8785 56.8768 30.6753 56.7899 30.5503 56.9405ZM35.1986 56.9045C35.0816 56.9786 35.1468 57.1909 35.2866 57.1909C35.4479 57.1909 35.5392 57.0497 35.4486 56.9405C35.374 56.8506 35.3003 56.84 35.1986 56.9045Z" fill="white"/>
<path d="M42.7851 19H40.9113C40.6486 19 40.3993 19.1251 40.2385 19.3391L33.1862 33.9608L22.7615 23.8933C22.6813 23.7878 22.5791 23.7024 22.4626 23.6437C22.3461 23.585 22.2182 23.5544 22.0887 23.5542H20.2149C20.0353 23.5542 19.9361 23.7682 20.046 23.9128L32.5133 36.6623C32.8564 37.1126 33.5159 37.1126 33.8617 36.6623L42.954 19.3558C43.0639 19.214 42.9647 19 42.7851 19Z" fill="#29CC97"/>
<rect x="33" y="11" width="1" height="4" fill="white"/>
<defs>
<filter id="filter0_d" x="0.153214" y="0.0111084" width="65.6936" height="69.9778" filterUnits="userSpaceOnUse" color-interpolation-filters="sRGB">
<feFlood flood-opacity="0" result="BackgroundImageFix"/>
<feColorMatrix in="SourceAlpha" type="matrix" values="0 0 0 0 0 0 0 0 0 0 0 0 0 0 0 0 0 0 127 0"/>
<feOffset/>
<feGaussianBlur stdDeviation="3"/>
<feColorMatrix type="matrix" values="0 0 0 0 0.266667 0 0 0 0 0.450981 0 0 0 0 0.964706 0 0 0 0.23 0"/>
<feBlend mode="normal" in2="BackgroundImageFix" result="effect1_dropShadow"/>
<feBlend mode="normal" in="SourceGraphic" in2="effect1_dropShadow" result="shape"/>
</filter>
</defs>
</svg>
